<svg version="1.1" id="Layer_1" xmlns="http://www.w3.org/2000/svg" x="0" y="0" viewBox="0 0 145 30" xml:space="preserve"><style>.st0{fill:#FFFFFF;}</style><path class="st0" d="M9.6 14.3h6.7c-.9 3.1-3.7 5.3-7 5.3-4 0-7.3-3.3-7.3-7.3S5.3 5 9.3 5c3 0 5.6 1.9 6.7 4.5h2c-1.2-3.7-4.6-6.4-8.7-6.4-5 0-9.1 4.1-9.1 9.1s4.1 9.1 9.1 9.1c2.9 0 5.6-1.4 7.1-3.5v3.1H18v-8.6H9.6v2zM21.1 3.8h1.8v17.3h-1.8zm53.9 0h1.8v17.3H75zm-42.5 16c-2.8 0-5.1-2.4-5.1-5.2 0-2.8 2.3-5.2 5.1-5.2s5.1 2.4 5.1 5.2c-.1 2.8-2.3 5.2-5.1 5.2m0-12.1c-3.8 0-6.9 3.1-6.9 6.9 0 3.8 3.1 6.9 6.9 6.9 3.8 0 6.9-3.1 6.9-6.9 0-3.8-3.1-6.9-6.9-6.9m15.9 12.1c-2.8 0-5.1-2.4-5.1-5.2 0-2.8 2.3-5.2 5.1-5.2s5.1 2.4 5.1 5.2c0 2.8-2.3 5.2-5.1 5.2m.1-12.2c-2.1 0-3.9.9-5.2 2.3V3.8h-1.8v17.3h1.8v-1.7c1.3 1.4 3.1 2.3 5.2 2.3 3.8 0 7-3.2 7-7 0-4-3.1-7.1-7-7.1m16.4 12.2c-2.8 0-5.1-2.4-5.1-5.2 0-2.8 2.3-5.2 5.1-5.2s5.1 2.4 5.1 5.2c0 2.8-2.3 5.2-5.1 5.2M70 9.9c-1.3-1.4-3.2-2.4-5.3-2.4-3.9 0-7.1 3.2-7.1 7.1 0 3.9 3.2 7 7.1 7.1 2.1 0 4-.9 5.3-2.4v1.8h1.8V8.4H70v1.5zM124.9 2h3.2v3.1h-3.2zM83.4 3.8h-3v17.3h9.7v-2.8h-6.7zm41.5 3.7h3.2v13.6h-3.2zM98.3 18.7c-2.2 0-3.9-1.9-3.9-4.2s1.8-4.2 3.9-4.2c2.2 0 3.9 1.9 3.9 4.2s-1.7 4.2-3.9 4.2m0-11.3c-3.9 0-7.1 3.2-7.1 7.1 0 3.9 3.2 7.1 7.1 7.1 3.9 0 7.1-3.2 7.1-7.1 0-3.9-3.1-7.1-7.1-7.1m43.3 9c-.6 1.4-2 2.3-3.5 2.3-2.2 0-3.9-1.9-3.9-4.2 0-2.5 1.8-4.2 3.9-4.2 1.5 0 2.7.9 3.4 2.1h3.4c-.9-2.9-3.6-5-6.8-5-3.9 0-7.1 3.2-7.1 7.1 0 3.9 3.2 7.1 7.1 7.1 3.3 0 6-2.2 6.9-5.2h-3.4zm-27.5 9.4c-1.4 0-2.8-.8-3.7-1.9l-2.9 1.4c1.4 2.1 3.6 3.5 6.5 3.5 3.8 0 6.9-3 7.2-6.6H118c-.2 2-1.9 3.6-3.9 3.6m.2-7c-2.2 0-3.9-1.9-3.9-4.2 0-2.3 1.8-4.2 3.9-4.2 2.2 0 3.9 1.9 3.9 4.2 0 2.3-1.8 4.2-3.9 4.2m4.1-9.9c-1.2-.8-2.6-1.4-4.2-1.4-3.9 0-7.1 3.2-7.1 7.1 0 3.9 3.2 7.1 7.1 7.1 3.9 0 7.1-3.2 7.1-7V7.5h-2.9v1.4z"/></svg>